<svg xmlns="http://www.w3.org/2000/svg" viewBox="0 0 800 500">
  <defs>
    <linearGradient id="bg5" x1="0%" y1="0%" x2="100%" y2="100%">
      <stop offset="0%" style="stop-color:#071933;stop-opacity:1" />
      <stop offset="100%" style="stop-color:#0a2545;stop-opacity:1" />
    </linearGradient>
    <linearGradient id="accent5" x1="0%" y1="0%" x2="100%" y2="0%">
      <stop offset="0%" style="stop-color:#FE011C;stop-opacity:1" />
      <stop offset="100%" style="stop-color:#ff4d6a;stop-opacity:1" />
    </linearGradient>
  </defs>
  <rect width="800" height="500" fill="url(#bg5)"/>
  <circle cx="650" cy="400" r="180" fill="url(#accent5)" opacity="0.06"/>
  <circle cx="150" cy="100" r="140" fill="#0a4060" opacity="0.3"/>
  <g transform="translate(400,230)" opacity="0.15">
    <circle cx="0" cy="0" r="100" fill="none" stroke="#FE011C" stroke-width="1"/>
    <circle cx="0" cy="0" r="70" fill="none" stroke="#FE011C" stroke-width="1"/>
    <circle cx="0" cy="0" r="40" fill="none" stroke="#FE011C" stroke-width="1"/>
    <line x1="-150" y1="-50" x2="150" y2="50" stroke="#FE011C" stroke-width="0.5"/>
    <line x1="-150" y1="50" x2="150" y2="-50" stroke="#FE011C" stroke-width="0.5"/>
  </g>
  <g transform="translate(400,230)">
    <circle cx="0" cy="0" r="45" fill="none" stroke="url(#accent5)" stroke-width="3"/>
    <circle cx="0" cy="0" r="28" fill="none" stroke="url(#accent5)" stroke-width="2"/>
    <circle cx="0" cy="0" r="10" fill="url(#accent5)"/>
    <line x1="-18" y1="-18" x2="18" y2="18" stroke="url(#accent5)" stroke-width="2"/>
    <line x1="18" y1="-18" x2="-18" y2="18" stroke="url(#accent5)" stroke-width="2"/>
  </g>
  <rect x="80" y="360" width="640" height="4" rx="2" fill="#FE011C" opacity="0.3"/>
  <text x="400" y="400" text-anchor="middle" fill="#a0b0c0" font-family="monospace" font-size="14" letter-spacing="3">CTF — FORENSICS</text>
  <text x="400" y="435" text-anchor="middle" fill="#FE011C" font-family="sans-serif" font-size="11" letter-spacing="2" opacity="0.8">PACKET ANALYSIS CHALLENGE</text>
</svg>