<svg xmlns="http://www.w3.org/2000/svg" viewBox="0 0 800 500">
  <defs>
    <linearGradient id="bg2" x1="0%" y1="0%" x2="100%" y2="100%">
      <stop offset="0%" style="stop-color:#0a2545;stop-opacity:1" />
      <stop offset="100%" style="stop-color:#071933;stop-opacity:1" />
    </linearGradient>
    <linearGradient id="accent2" x1="0%" y1="0%" x2="100%" y2="100%">
      <stop offset="0%" style="stop-color:#f59e0b;stop-opacity:1" />
      <stop offset="100%" style="stop-color:#d97706;stop-opacity:1" />
    </linearGradient>
  </defs>
  <rect width="800" height="500" fill="url(#bg2)"/>
  <circle cx="200" cy="150" r="180" fill="url(#accent2)" opacity="0.06"/>
  <circle cx="700" cy="400" r="150" fill="#0a4060" opacity="0.3"/>
  <g transform="translate(400,230)" opacity="0.2">
    <circle cx="0" cy="0" r="80" fill="none" stroke="#f59e0b" stroke-width="1"/>
    <circle cx="0" cy="0" r="55" fill="none" stroke="#f59e0b" stroke-width="1"/>
    <circle cx="0" cy="0" r="30" fill="none" stroke="#f59e0b" stroke-width="1"/>
    <line x1="-100" y1="0" x2="100" y2="0" stroke="#f59e0b" stroke-width="0.5"/>
    <line x1="0" y1="-100" x2="0" y2="100" stroke="#f59e0b" stroke-width="0.5"/>
  </g>
  <g transform="translate(400,230)">
    <rect x="-40" y="-40" width="80" height="80" rx="8" fill="none" stroke="url(#accent2)" stroke-width="3"/>
    <circle cx="0" cy="0" r="12" fill="url(#accent2)"/>
    <line x1="0" y1="-8" x2="0" y2="8" stroke="#fff" stroke-width="2"/>
    <line x1="-8" y1="0" x2="8" y2="0" stroke="#fff" stroke-width="2"/>
  </g>
  <rect x="80" y="360" width="640" height="4" rx="2" fill="#f59e0b" opacity="0.3"/>
  <text x="400" y="400" text-anchor="middle" fill="#a0b0c0" font-family="monospace" font-size="14" letter-spacing="3">WEBINAR — AI SECURITY</text>
  <text x="400" y="435" text-anchor="middle" fill="#f59e0b" font-family="sans-serif" font-size="11" letter-spacing="2" opacity="0.8">GENERATIVE PIPELINES</text>
</svg>