<svg xmlns="http://www.w3.org/2000/svg" viewBox="0 0 800 500">
  <defs>
    <linearGradient id="bg1" x1="0%" y1="0%" x2="100%" y2="100%">
      <stop offset="0%" style="stop-color:#071933;stop-opacity:1" />
      <stop offset="100%" style="stop-color:#0a2545;stop-opacity:1" />
    </linearGradient>
    <linearGradient id="accent1" x1="0%" y1="0%" x2="100%" y2="0%">
      <stop offset="0%" style="stop-color:#FE011C;stop-opacity:1" />
      <stop offset="100%" style="stop-color:#ff4d6a;stop-opacity:1" />
    </linearGradient>
  </defs>
  <rect width="800" height="500" fill="url(#bg1)"/>
  <circle cx="650" cy="80" r="120" fill="url(#accent1)" opacity="0.08"/>
  <circle cx="150" cy="420" r="200" fill="#0a4060" opacity="0.3"/>
  <g transform="translate(400,250)" opacity="0.15">
    <line x1="-300" y1="0" x2="300" y2="0" stroke="#FE011C" stroke-width="1"/>
    <line x1="0" y1="-200" x2="0" y2="200" stroke="#FE011C" stroke-width="1"/>
    <line x1="-200" y1="-200" x2="200" y2="200" stroke="#FE011C" stroke-width="0.5"/>
    <line x1="200" y1="-200" x2="-200" y2="200" stroke="#FE011C" stroke-width="0.5"/>
  </g>
  <g transform="translate(400,220)">
    <polygon points="-60,40 -20,40 -20,10 20,10 20,40 60,40 60,-10 20,-10 20,-40 -20,-40 -20,-10 -60,-10" fill="none" stroke="url(#accent1)" stroke-width="3"/>
    <circle cx="0" cy="-55" r="18" fill="none" stroke="url(#accent1)" stroke-width="3"/>
    <line x1="-10" y1="-55" x2="10" y2="-55" stroke="url(#accent1)" stroke-width="3"/>
    <line x1="0" y1="-65" x2="0" y2="-45" stroke="url(#accent1)" stroke-width="3"/>
  </g>
  <rect x="80" y="360" width="640" height="4" rx="2" fill="#FE011C" opacity="0.3"/>
  <text x="400" y="400" text-anchor="middle" fill="#a0b0c0" font-family="monospace" font-size="14" letter-spacing="3">CTF — CYBER DEFENSE</text>
  <text x="400" y="435" text-anchor="middle" fill="#FE011C" font-family="sans-serif" font-size="11" letter-spacing="2" opacity="0.8">ZERO-DAY THREAT SIMULATION</text>
</svg>